<?xml version="1.0" encoding="utf-8"?>
<!-- Generator: Adobe Illustrator 12.0.1, SVG Export Plug-In . SVG Version: 6.00 Build 51448)  -->
<!DOCTYPE svg PUBLIC "-//W3C//DTD SVG 1.0//EN" "http://www.w3.org/TR/2001/REC-SVG-20010904/DTD/svg10.dtd" [
	<!ENTITY ns_svg "http://www.w3.org/2000/svg">
	<!ENTITY ns_xlink "http://www.w3.org/1999/xlink">
]>
<svg  version="1.0" id="Layer_1" xmlns="&ns_svg;" xmlns:xlink="&ns_xlink;" width="77.166" height="76.676"
	 viewBox="0 0 77.166 76.676" overflow="visible" enable-background="new 0 0 77.166 76.676" xml:space="preserve">
<path fill="#F7931D" d="M47.969,27.107c-2.112-0.043-4.262-0.072-6.423-0.086c-0.066,0-0.129,0.012-0.196,0.018
	c-1.932-0.268-4.516-2.232-4.98-4.936c0.016-1.959,0.034-3.854,0.056-5.656c0.009-0.863-0.761-1.533-1.716-1.518
	c-2.054,0.033-4.096,0.094-6.103,0.18c-0.933,0.041-1.731,0.75-1.787,1.609c-0.116,1.84-0.216,3.771-0.299,5.77
	c-0.039,0.932,0.71,1.674,1.681,1.646c1.779-0.053,3.588-0.09,5.412-0.115c5.202,1.545,6.124,5.686,6.114,5.688
	c0.003,1.846,0.006,3.717,0.007,5.598c0.001,1.02,0.83,1.85,1.85,1.85c2.188,0.002,4.365,0.006,6.502,0.01
	c0.996,0.002,1.792-0.816,1.785-1.822c-0.014-2.16-0.043-4.311-0.087-6.422C49.761,27.936,48.954,27.129,47.969,27.107z"/>
<path fill="#F7931D" d="M60.218,27.566c-1.848-0.105-3.788-0.195-5.792-0.271c-0.063-0.002-0.123,0.008-0.182,0.012
	c-1.794-0.312-4.327-2.326-4.905-5.031c-0.074-1.943-0.162-3.822-0.263-5.615c-0.05-0.859-0.85-1.566-1.789-1.602
	c-2.021-0.076-4.07-0.125-6.129-0.146c-0.958-0.01-1.733,0.664-1.73,1.527c0.009,1.855,0.016,3.807,0.022,5.826
	c0.001,0.941,0.815,1.723,1.815,1.73c1.833,0.012,3.657,0.041,5.459,0.08c5.179,1.73,6.061,5.801,6.069,5.803
	c0.042,1.811,0.071,3.645,0.086,5.488c0.008,1,0.792,1.814,1.734,1.818c2.023,0.008,3.979,0.016,5.839,0.029
	c0.868,0.002,1.542-0.773,1.531-1.73c-0.025-2.061-0.077-4.109-0.155-6.129C61.791,28.414,61.081,27.617,60.218,27.566z"/>
<path fill="#DB1A21" d="M70.189,28.404c-1.369-0.17-2.881-0.32-4.513-0.457c-0.049-0.006-0.098,0.002-0.147,0.004
	c-1.458-0.35-3.659-2.352-4.263-4.986c-0.132-1.875-0.29-3.699-0.472-5.451c-0.088-0.84-0.831-1.578-1.675-1.664
	c-1.812-0.184-3.695-0.34-5.631-0.471c-0.9-0.061-1.59,0.566-1.53,1.424c0.13,1.836,0.242,3.764,0.334,5.754
	c0.042,0.93,0.843,1.727,1.774,1.768c1.706,0.08,3.368,0.17,4.968,0.275c4.622,1.875,5.317,5.74,5.347,5.744
	c0.063,1.715,0.106,3.447,0.128,5.188c0.011,0.945,0.661,1.719,1.421,1.723c1.63,0.016,3.138,0.033,4.494,0.051
	c0.632,0.006,1.104-0.699,1.094-1.574c-0.023-1.883-0.071-3.762-0.143-5.619C71.342,29.246,70.827,28.484,70.189,28.404z"/>
<path fill="#DB1A21" d="M58.014,7.273c-1.74-0.176-3.527-0.328-5.349-0.453c-0.057-0.004-0.11-0.002-0.164,0
	c-1.661-0.273-4.045-1.676-4.703-3.156c-0.186-1.061-0.386-1.961-0.6-2.68c-0.105-0.346-0.816-0.582-1.583-0.588
	c-1.653-0.012-3.308-0.02-4.964-0.021c-0.769-0.002-1.386,0.211-1.381,0.535c0.019,0.697,0.036,1.598,0.051,2.672
	c0.005,0.502,0.71,0.953,1.576,0.959c1.583,0.018,3.161,0.049,4.73,0.098c4.591,1.021,5.758,3.838,5.749,3.865
	c0.168,1.262,0.321,2.619,0.462,4.059c0.074,0.781,0.868,1.486,1.763,1.547c1.919,0.137,3.787,0.299,5.584,0.488
	c0.84,0.088,1.419-0.484,1.31-1.262c-0.232-1.666-0.492-3.24-0.778-4.701C59.585,7.953,58.825,7.355,58.014,7.273z"/>
<path fill="#DB1A21" d="M67.974,8.672c-1.49-0.279-3.056-0.533-4.683-0.762c-0.05-0.008-0.096-0.008-0.145-0.01
	c-1.486-0.377-3.797-1.945-4.645-3.572c-0.333-1.158-0.691-2.184-1.075-3.061c-0.186-0.426-0.958-0.738-1.719-0.748
	c-1.637-0.029-3.28-0.053-4.927-0.072c-0.765-0.006-1.28,0.229-1.156,0.584c0.273,0.766,0.528,1.719,0.765,2.836
	c0.107,0.52,0.875,1.018,1.709,1.07c1.526,0.094,3.034,0.203,4.514,0.33c4.468,1.312,5.668,4.285,5.672,4.299
	c0.248,1.293,0.477,2.66,0.683,4.09c0.112,0.775,0.834,1.51,1.593,1.623c1.629,0.246,3.166,0.521,4.592,0.82
	c0.664,0.143,1.101-0.377,1.002-1.145c-0.214-1.648-0.452-3.242-0.714-4.77C69.32,9.473,68.669,8.801,67.974,8.672z"/>
<path fill="#DB1A21" d="M76.667,29.658c-0.648-0.23-1.495-0.447-2.515-0.648c-0.032-0.006-0.062-0.002-0.093-0.002
	c-0.901-0.381-2.446-2.305-2.932-4.793c-0.121-1.752-0.266-3.475-0.434-5.154c-0.08-0.805-0.655-1.562-1.315-1.701
	c-1.413-0.297-2.942-0.564-4.568-0.807c-0.756-0.113-1.313,0.459-1.221,1.293c0.196,1.787,0.364,3.643,0.504,5.547
	c0.065,0.889,0.753,1.68,1.511,1.758c1.389,0.146,2.695,0.305,3.901,0.477c3.464,1.975,3.766,5.498,3.827,5.5
	c0.047,1.553,0.079,3.117,0.096,4.686c0.008,0.854,0.427,1.551,0.888,1.559c0.989,0.021,1.796,0.045,2.396,0.07
	c0.279,0.008,0.454-0.596,0.455-1.348c0-1.623,0-3.246,0-4.869C77.167,30.471,76.972,29.768,76.667,29.658z"/>
<path fill="#F7931D" d="M26.453,28.805c-0.049,2.105-0.082,4.248-0.097,6.406c-0.001,0.064,0.011,0.129,0.016,0.193
	c-0.267,1.928-2.221,4.51-4.899,4.973c-1.942-0.016-3.816-0.033-5.596-0.053c-0.853-0.008-1.514,0.758-1.499,1.711
	c0.033,2.047,0.093,4.08,0.181,6.08c0.042,0.93,0.744,1.727,1.592,1.783c1.818,0.117,3.731,0.219,5.711,0.305
	c0.923,0.043,1.66-0.707,1.63-1.674c-0.055-1.777-0.095-3.584-0.12-5.402c1.529-5.191,5.649-6.113,5.652-6.104
	c1.835-0.006,3.701-0.008,5.578-0.01c1.017,0,1.847-0.83,1.847-1.848c0.003-2.188,0.009-4.363,0.018-6.496
	c0.003-0.996-0.811-1.787-1.814-1.779c-2.156,0.02-4.298,0.053-6.397,0.102C27.279,27.018,26.476,27.824,26.453,28.805z"/>
<path fill="#ED1C24" d="M47.89,52.717c-2.095,0.057-4.227,0.092-6.37,0.109c-0.065,0-0.129,0.012-0.194,0.02
	c-1.902-0.234-4.478-2.137-4.998-5.004c-0.009-2.074-0.016-4.188-0.018-6.314c-0.002-1.02-0.831-1.848-1.848-1.848
	c-2.184-0.004-4.351-0.008-6.474-0.014c-0.988-0.002-1.777,0.811-1.77,1.814c0.017,2.156,0.049,4.299,0.099,6.402
	c0.023,0.98,0.828,1.789,1.805,1.812c1.792,0.041,3.615,0.072,5.452,0.094c5.295,1.738,6.131,5.627,6.127,5.611
	c-0.008,1.717-0.017,3.379-0.026,4.969c-0.004,0.861,0.769,1.533,1.726,1.521c2.057-0.023,4.104-0.076,6.121-0.152
	c0.938-0.037,1.737-0.744,1.788-1.602c0.108-1.838,0.2-3.77,0.277-5.768C49.624,53.438,48.868,52.693,47.89,52.717z"/>
<path fill="#ED1C24" d="M60.06,52.146c-1.84,0.131-3.769,0.244-5.76,0.338c-0.062,0.004-0.122,0.018-0.183,0.027
	c-1.755-0.158-4.148-1.945-4.585-4.775c0.042-2.053,0.07-4.143,0.084-6.244c0.006-1.01-0.789-1.824-1.787-1.822
	c-2.14,0.006-4.318,0.01-6.508,0.01c-1.02,0-1.85,0.83-1.85,1.85c-0.001,2.188-0.004,4.361-0.007,6.494
	c-0.001,0.994,0.814,1.791,1.821,1.785c1.847-0.012,3.686-0.033,5.5-0.066c5.148,1.58,5.686,5.354,5.702,5.342
	c-0.087,1.691-0.188,3.332-0.302,4.906c-0.061,0.855,0.627,1.48,1.523,1.42c1.93-0.135,3.808-0.293,5.612-0.48
	c0.841-0.086,1.582-0.822,1.671-1.662c0.19-1.797,0.354-3.67,0.49-5.598C61.546,52.771,60.918,52.086,60.06,52.146z"/>
<path fill="#ED1C24" d="M70.03,51.104c-1.378,0.209-2.894,0.398-4.525,0.568c-0.05,0.006-0.099,0.021-0.149,0.033
	c-1.428-0.074-3.42-1.695-3.744-4.395c0.076-1.967,0.127-3.961,0.152-5.967c0.013-0.959-0.666-1.732-1.537-1.729
	c-1.867,0.012-3.829,0.023-5.859,0.031c-0.946,0.004-1.729,0.818-1.738,1.82c-0.019,2.145-0.055,4.277-0.11,6.373
	c-0.026,0.977,0.723,1.734,1.659,1.699c1.716-0.064,3.386-0.141,4.994-0.227c4.478,1.367,4.721,4.92,4.756,4.916
	c-0.128,1.625-0.277,3.209-0.447,4.742c-0.092,0.832,0.465,1.404,1.224,1.291c1.629-0.242,3.163-0.51,4.581-0.805
	c0.663-0.137,1.242-0.896,1.322-1.701c0.174-1.727,0.325-3.498,0.449-5.303C71.116,51.613,70.671,51.008,70.03,51.104z"/>
<path fill="#DB1A21" d="M76.636,49.539c-0.682,0.287-1.556,0.557-2.596,0.807c-0.032,0.008-0.063,0.023-0.096,0.039
	c-0.91,0.02-2.291-1.377-2.5-3.85c0.07-1.805,0.116-3.627,0.14-5.457c0.011-0.873-0.458-1.576-1.088-1.57
	c-1.35,0.021-2.852,0.041-4.479,0.057c-0.757,0.006-1.406,0.777-1.417,1.723c-0.027,2.023-0.083,4.037-0.166,6.021
	c-0.039,0.926,0.566,1.619,1.324,1.555c1.389-0.119,2.692-0.25,3.893-0.393c3.265,1.092,3.282,4.309,3.343,4.316
	c-0.096,1.51-0.207,3-0.334,4.463c-0.07,0.795,0.332,1.303,0.863,1.137c1.137-0.354,2.136-0.732,2.974-1.139
	c0.395-0.189,0.671-0.963,0.669-1.719c0-1.623,0-3.246,0-4.869C77.162,49.908,76.953,49.406,76.636,49.539z"/>
<path fill="#DB1A21" d="M26.654,54.207c0.083,1.998,0.181,3.93,0.297,5.771c0.003,0.055,0.019,0.111,0.028,0.166
	c-0.149,1.639-1.816,3.594-4.292,3.773c-1.833-0.143-3.619-0.312-5.337-0.508c-0.825-0.094-1.387,0.455-1.271,1.207
	c0.252,1.615,0.53,3.133,0.836,4.535c0.143,0.654,0.902,1.225,1.701,1.305c1.715,0.174,3.474,0.324,5.266,0.449
	c0.833,0.059,1.429-0.377,1.327-1.008c-0.19-1.158-0.366-2.42-0.527-3.768c1.022-3.822,4.91-4.553,4.905-4.512
	c1.733,0.068,3.49,0.115,5.255,0.143c0.955,0.016,1.726-0.656,1.717-1.52c-0.021-1.854-0.039-3.805-0.053-5.824
	c-0.006-0.941-0.823-1.725-1.82-1.734c-2.14-0.023-4.265-0.064-6.349-0.125C27.363,52.533,26.614,53.275,26.654,54.207z"/>
<path fill="#DB1A21" d="M46.536,72.811c-1.806,0.059-3.627,0.1-5.453,0.117c-0.056,0-0.109,0.008-0.166,0.012
	c-1.605-0.123-3.81-1.102-4.318-2.92c-0.034-1.316-0.065-2.773-0.093-4.352c-0.012-0.754-0.788-1.404-1.73-1.42
	c-2.02-0.035-4.027-0.096-6.003-0.186c-0.922-0.041-1.608,0.559-1.537,1.314c0.151,1.621,0.318,3.125,0.503,4.484
	c0.087,0.637,0.855,1.148,1.714,1.186c1.579,0.066,3.173,0.115,4.774,0.146c4.664,1.145,5.283,3.076,5.288,3.033
	c-0.019,0.807-0.039,1.477-0.06,1.994c-0.008,0.279,0.595,0.453,1.348,0.455c1.623,0,3.246,0,4.869,0c0.752,0,1.458-0.195,1.568-0.5
	c0.231-0.648,0.448-1.496,0.649-2.518C47.987,73.18,47.38,72.781,46.536,72.811z"/>
<path fill="#DB1A21" d="M5.586,30.016c-0.073,1.854-0.121,3.725-0.144,5.602c-0.001,0.057,0.005,0.113,0.008,0.17
	c-0.165,1.691-1.361,3.922-2.677,4.266c-0.953-0.037-1.733-0.078-2.317-0.121C0.176,39.914,0.001,40.51,0,41.262
	c0,1.623,0,3.246,0,4.869c-0.001,0.752,0.198,1.463,0.507,1.58c0.657,0.248,1.51,0.479,2.535,0.693
	c0.478,0.102,0.876-0.496,0.844-1.338c-0.058-1.539-0.099-3.088-0.125-4.645c0.726-4.377,3.295-5.26,3.333-5.246
	c1.188-0.018,2.484-0.033,3.875-0.049c0.752-0.004,1.397-0.775,1.409-1.719c0.027-2.021,0.082-4.031,0.166-6.016
	c0.039-0.926-0.563-1.617-1.315-1.551c-1.618,0.143-3.116,0.297-4.469,0.469C6.126,28.393,5.619,29.152,5.586,30.016z"/>
<path fill="#DB1A21" d="M22.649,52.475c-1.987-0.096-3.91-0.209-5.745-0.342c-0.057-0.006-0.109,0.002-0.165,0.004
	c-1.656-0.363-3.822-2.336-4.311-5.014c-0.08-1.926-0.132-3.879-0.159-5.842c-0.012-0.943-0.655-1.713-1.406-1.719
	c-1.612-0.018-3.098-0.037-4.43-0.057c-0.621-0.008-1.083,0.691-1.073,1.562c0.023,1.877,0.07,3.744,0.143,5.594
	c0.034,0.861,0.54,1.625,1.167,1.707c1.151,0.146,2.408,0.281,3.755,0.406c4.01,1.891,5.166,5.705,5.121,5.686
	c0.124,1.643,0.269,3.242,0.433,4.785c0.089,0.838,0.829,1.576,1.667,1.664c1.799,0.188,3.672,0.35,5.599,0.484
	c0.897,0.062,1.581-0.561,1.519-1.416c-0.135-1.832-0.25-3.752-0.348-5.738C24.373,53.314,23.577,52.518,22.649,52.475z"/>
<path fill="#DB1A21" d="M24.84,72.543c-1.764-0.104-3.504-0.227-5.209-0.373c-0.052-0.004-0.101-0.002-0.152-0.002
	c-1.558-0.27-3.872-1.598-4.667-3.584c-0.301-1.393-0.575-2.887-0.823-4.463c-0.119-0.758-0.839-1.48-1.592-1.598
	c-1.616-0.254-3.141-0.535-4.559-0.844c-0.659-0.143-1.091,0.359-0.99,1.115c0.221,1.623,0.465,3.189,0.735,4.688
	c0.124,0.699,0.778,1.355,1.475,1.48c1.274,0.23,2.599,0.443,3.966,0.639c4.21,1.705,5.64,3.936,5.623,3.906
	c0.313,0.943,0.646,1.781,0.999,2.5c0.193,0.395,0.967,0.67,1.722,0.668c1.623,0,3.246,0,4.869,0
	c0.754-0.004,1.252-0.213,1.12-0.529c-0.291-0.682-0.562-1.559-0.813-2.6C26.428,73.061,25.665,72.594,24.84,72.543z"/>
<path fill="#DB1A21" d="M57.348,72.186c-1.707,0.145-3.449,0.268-5.215,0.369c-0.056,0.004-0.109,0.014-0.163,0.02
	c-1.53-0.057-3.479-0.961-3.708-2.768c0.16-1.326,0.306-2.789,0.438-4.367c0.064-0.756-0.632-1.361-1.56-1.324
	c-1.988,0.078-4.003,0.129-6.027,0.15c-0.944,0.012-1.714,0.654-1.717,1.412c-0.012,1.621-0.024,3.117-0.038,4.461
	c-0.004,0.627,0.7,1.094,1.574,1.086c1.605-0.018,3.208-0.051,4.797-0.104c4.448,0.898,4.584,2.904,4.596,2.863
	c-0.218,0.854-0.45,1.58-0.696,2.164c-0.131,0.316,0.37,0.523,1.123,0.527c1.623,0,3.245,0,4.868,0
	c0.756,0.002,1.529-0.271,1.72-0.664c0.409-0.832,0.792-1.826,1.146-2.961C58.653,72.52,58.146,72.117,57.348,72.186z"/>
<path fill="#DB1A21" d="M35.95,5.453c-1.878,0.023-3.751,0.07-5.606,0.141c-0.058,0.002-0.115,0.012-0.17,0.018
	c-1.646-0.082-3.634-1.189-3.683-2.564c0.247-1.006,0.513-1.854,0.796-2.516C27.421,0.213,26.922,0.004,26.168,0
	c-1.623,0-3.246,0-4.868,0c-0.755-0.002-1.53,0.273-1.723,0.668c-0.411,0.84-0.795,1.838-1.152,2.977
	c-0.167,0.533,0.338,0.938,1.135,0.867c1.456-0.125,2.937-0.234,4.438-0.33c4.071,0.584,4.582,3.127,4.568,3.168
	c-0.143,1.201-0.274,2.506-0.394,3.9c-0.067,0.756,0.626,1.361,1.554,1.324c1.985-0.082,3.999-0.135,6.021-0.16
	c0.946-0.012,1.715-0.658,1.72-1.414c0.016-1.623,0.033-3.119,0.052-4.463C37.525,5.91,36.824,5.445,35.95,5.453z"/>
<path fill="#DB1A21" d="M22.002,15.516c-1.904,0.145-3.75,0.316-5.517,0.516c-0.056,0.006-0.109,0.023-0.163,0.035
	c-1.559-0.039-3.345-1.395-3.367-3.502c0.25-1.572,0.527-3.064,0.831-4.461c0.146-0.666-0.345-1.1-1.087-0.994
	c-1.593,0.23-3.127,0.486-4.587,0.768c-0.684,0.129-1.318,0.795-1.435,1.5c-0.253,1.51-0.484,3.08-0.692,4.701
	c-0.095,0.758,0.321,1.256,0.958,1.105c1.171-0.273,2.424-0.527,3.747-0.76c3.644,0.625,4.104,4.031,4.072,4.041
	c-0.159,1.561-0.298,3.17-0.417,4.816c-0.064,0.893,0.545,1.572,1.382,1.51c1.796-0.141,3.686-0.262,5.645-0.363
	c0.914-0.047,1.703-0.846,1.75-1.77c0.103-1.982,0.226-3.902,0.371-5.734C23.561,16.066,22.887,15.447,22.002,15.516z"/>
</svg>
